<mxfile host="app.diagrams.net" modified="2020-07-28T19:19:07.221Z" agent="5.0 (Macintosh; Intel Mac OS X 10_15_6) AppleWebKit/537.36 (KHTML, like Gecko) Chrome/84.0.4147.89 Safari/537.36" etag="uFyUTCIBVcM73PSe6lCO" version="13.5.4" type="github">
  <diagram id="aVT-eTiVZHm6OBw4AP0E" name="Page-1">
    <mxGraphModel dx="946" dy="516" grid="1" gridSize="10" guides="1" tooltips="1" connect="1" arrows="1" fold="1" page="1" pageScale="1" pageWidth="3300" pageHeight="4681" math="0" shadow="0">
      <root>
        <mxCell id="0" />
        <mxCell id="1" parent="0" />
        <mxCell id="0VbTFQXEsl_M1sDoKE1j-1" value="" style="ellipse;whiteSpace=wrap;html=1;" vertex="1" parent="1">
          <mxGeometry x="420" y="230" width="120" height="80" as="geometry" />
        </mxCell>
        <mxCell id="0VbTFQXEsl_M1sDoKE1j-2" value="" style="ellipse;whiteSpace=wrap;html=1;" vertex="1" parent="1">
          <mxGeometry x="420" y="230" width="120" height="80" as="geometry" />
        </mxCell>
        <mxCell id="0VbTFQXEsl_M1sDoKE1j-3" value="" style="ellipse;whiteSpace=wrap;html=1;" vertex="1" parent="1">
          <mxGeometry x="420" y="230" width="120" height="80" as="geometry" />
        </mxCell>
        <mxCell id="0VbTFQXEsl_M1sDoKE1j-4" value="" style="ellipse;whiteSpace=wrap;html=1;" vertex="1" parent="1">
          <mxGeometry x="230" y="210" width="120" height="80" as="geometry" />
        </mxCell>
        <mxCell id="0VbTFQXEsl_M1sDoKE1j-5" value="" style="shape=dataStorage;whiteSpace=wrap;html=1;fixedSize=1;rotation=-86;" vertex="1" parent="1">
          <mxGeometry x="323.24" y="195.51" width="40" height="340" as="geometry" />
        </mxCell>
      </root>
    </mxGraphModel>
  </diagram>
</mxfile>
